<?xml version="1.0" standalone="no"?>
<!DOCTYPE svg PUBLIC "-//W3C//DTD SVG 20010904//EN"
 "http://www.w3.org/TR/2001/REC-SVG-20010904/DTD/svg10.dtd">
<svg version="1.0" xmlns="http://www.w3.org/2000/svg"
 width="546.000000pt" height="546.000000pt" viewBox="0 0 546.000000 546.000000"
 preserveAspectRatio="xMidYMid meet">
<metadata>
Created by potrace 1.11, written by Peter Selinger 2001-2013
</metadata>
<g transform="translate(0.000000,546.000000) scale(0.100000,-0.100000)"
fill="#000000" stroke="none">
<path d="M855 5453 c-360 -51 -684 -320 -803 -668 -55 -162 -53 -60 -50 -2090
l4 -1870 23 -80 c109 -379 400 -650 783 -729 69 -14 276 -16 1911 -16 1995 0
1898 -3 2067 55 197 67 384 213 503 392 59 89 98 173 134 288 l28 90 0 1900 0
1900 -23 85 c-29 108 -106 266 -170 350 -61 80 -168 182 -245 233 -79 53 -206
111 -302 138 l-80 23 -1875 2 c-1031 1 -1888 -1 -1905 -3z m2545 -913 c559
-43 1047 -330 1353 -795 213 -325 314 -712 287 -1100 -40 -553 -329 -1051
-790 -1359 -185 -124 -438 -226 -666 -268 -173 -32 -535 -31 -744 1 -304 46
-595 133 -836 251 -479 233 -930 677 -1048 1032 -34 100 -34 167 -2 205 l24
28 329 5 c370 6 372 6 394 79 9 31 9 44 -5 72 -31 66 -3 63 -633 67 l-572 4
-25 24 c-28 29 -35 58 -24 101 17 64 9 63 474 63 231 0 537 3 680 7 l259 6 27
28 c39 39 39 97 -1 141 l-29 33 -232 5 -232 5 -24 28 c-45 52 -25 134 38 156
17 6 70 11 119 11 l87 0 12 38 c7 20 34 82 61 137 271 561 826 943 1441 994
144 12 139 12 278 1z m-2215 -1186 c14 -9 30 -33 36 -53 25 -82 -44 -138 -156
-128 -51 5 -64 10 -87 36 -39 43 -38 93 1 132 27 27 35 29 106 29 53 0 83 -5
100 -16z m-378 -836 c41 -41 39 -100 -5 -139 l-32 -29 -145 0 c-144 0 -145 0
-176 28 -23 21 -31 37 -32 64 -1 41 24 85 56 98 12 5 86 8 164 7 141 -2 143
-2 170 -29z"/>
<path d="M3103 3300 c-93 -47 -149 -191 -123 -318 27 -127 97 -202 189 -202
53 0 80 12 118 50 57 59 77 113 77 216 1 81 -2 96 -29 149 -54 105 -147 148
-232 105z"/>
<path d="M3915 3306 c-147 -66 -187 -327 -70 -463 43 -51 82 -67 144 -61 76 7
131 61 165 161 45 134 -12 310 -117 358 -49 22 -81 23 -122 5z"/>
</g>
</svg>
