<?xml version="1.0" standalone="no"?>
<!DOCTYPE svg PUBLIC "-//W3C//DTD SVG 20010904//EN"
 "http://www.w3.org/TR/2001/REC-SVG-20010904/DTD/svg10.dtd">
<svg version="1.0" xmlns="http://www.w3.org/2000/svg"
 width="634.000000pt" height="634.000000pt" viewBox="0 0 634.000000 634.000000"
 preserveAspectRatio="xMidYMid meet">
<metadata>
Created by potrace 1.11, written by Peter Selinger 2001-2013
</metadata>
<g transform="translate(0.000000,634.000000) scale(0.100000,-0.100000)"
fill="#000000" stroke="none">
<path d="M3695 5509 c-93 -5 -183 -13 -200 -18 -16 -5 -59 -13 -95 -16 -35 -4
-71 -11 -80 -15 -8 -4 -49 -15 -90 -25 -93 -22 -165 -43 -207 -61 -17 -8 -38
-14 -47 -14 -9 0 -16 -4 -16 -10 0 -5 -8 -10 -17 -10 -9 0 -54 -18 -99 -40
-46 -22 -86 -40 -90 -40 -3 0 -39 -20 -78 -45 -40 -25 -78 -45 -84 -45 -7 0
-12 -4 -12 -10 0 -5 -5 -10 -10 -10 -12 0 -73 -41 -78 -52 -2 -5 -10 -8 -18
-8 -8 0 -14 -3 -14 -7 0 -5 -17 -19 -37 -33 -57 -38 -119 -89 -224 -186 -46
-42 -157 -162 -194 -209 -16 -21 -36 -44 -42 -51 -7 -7 -13 -15 -13 -19 0 -3
-9 -16 -21 -28 -11 -12 -32 -43 -47 -69 -15 -27 -30 -48 -34 -48 -5 0 -8 -7
-8 -15 0 -8 -4 -15 -9 -15 -4 0 -25 -33 -46 -72 -20 -40 -47 -91 -60 -113
l-23 -40 -368 -5 c-257 -4 -378 -9 -397 -18 -72 -31 -137 -66 -137 -74 0 -4
-5 -8 -11 -8 -32 0 -179 -183 -179 -224 0 -7 -7 -30 -15 -49 -18 -43 -21 -222
-4 -281 10 -36 9 -40 -25 -75 -60 -61 -86 -95 -92 -118 -4 -13 -10 -23 -15
-23 -5 0 -9 -6 -9 -13 0 -8 -8 -29 -18 -48 -14 -28 -17 -62 -17 -195 l-1 -160
-39 -44 c-22 -23 -44 -48 -50 -54 -23 -26 -75 -141 -75 -167 0 -15 -5 -29 -12
-31 -15 -5 -15 -235 0 -250 7 -7 12 -20 12 -29 0 -21 44 -122 62 -140 7 -8 31
-36 52 -63 39 -48 137 -118 206 -146 27 -11 110 -15 353 -20 l319 -5 59 -65
c154 -169 291 -298 411 -388 35 -26 64 -50 66 -54 2 -5 9 -8 14 -8 6 0 35 -18
64 -40 29 -22 56 -40 59 -40 4 0 21 -11 38 -24 71 -53 451 -246 486 -246 9 0
25 -6 36 -13 11 -7 47 -21 80 -32 33 -10 74 -24 90 -31 17 -7 57 -20 90 -29
33 -9 89 -25 125 -35 99 -28 250 -57 455 -86 236 -33 882 -36 893 -4 2 6 21
10 42 10 22 0 49 4 62 9 13 5 57 17 98 26 88 21 171 45 185 55 6 4 22 10 38
14 15 4 53 18 85 32 31 14 71 31 87 39 75 33 114 53 171 88 34 20 67 37 73 37
6 0 11 5 11 10 0 6 5 10 10 10 6 0 38 20 73 45 34 25 73 53 86 62 14 10 36 28
49 41 14 12 28 22 31 22 3 0 28 21 56 46 27 25 62 55 77 67 15 12 28 25 28 28
0 3 26 32 58 65 48 51 115 125 152 171 6 7 20 28 31 48 12 19 25 35 30 35 5 0
9 7 9 15 0 8 5 15 10 15 6 0 10 7 10 15 0 8 5 15 10 15 6 0 10 4 10 10 0 5 19
38 43 72 23 35 54 88 69 118 71 146 118 253 118 269 0 9 4 21 9 27 7 8 48 135
82 254 57 200 78 596 45 850 -21 158 -58 321 -106 463 -11 31 -20 64 -20 72 0
8 -3 15 -8 15 -4 0 -12 12 -19 28 -7 15 -21 47 -31 72 -43 100 -84 179 -127
245 -24 39 -50 81 -57 95 -14 28 -116 169 -157 214 -14 16 -56 62 -93 101 -38
39 -68 77 -68 83 0 7 -5 12 -11 12 -11 0 -67 44 -154 121 -57 51 -169 132
-234 169 -14 9 -60 35 -101 58 -41 24 -82 47 -90 51 -8 5 -35 17 -60 26 -25
10 -67 28 -95 41 -91 41 -326 114 -369 114 -14 0 -34 4 -44 10 -20 11 -130 28
-262 39 -52 5 -115 11 -140 14 -25 3 -121 1 -215 -4z m360 -389 c122 -17 254
-44 290 -60 11 -5 34 -11 50 -15 43 -9 160 -52 231 -86 33 -16 65 -29 71 -29
6 0 13 -3 15 -7 2 -5 32 -24 68 -42 72 -39 88 -51 83 -66 -1 -6 10 -10 26 -11
15 -1 37 -10 48 -20 11 -10 53 -44 93 -74 81 -61 268 -242 315 -305 17 -22 40
-51 53 -65 12 -14 22 -28 22 -31 0 -3 11 -19 25 -35 14 -16 25 -34 25 -40 0
-6 13 -27 30 -45 16 -19 30 -42 30 -52 0 -10 7 -20 15 -23 8 -4 15 -10 15 -15
0 -4 23 -57 52 -116 28 -59 52 -122 52 -140 1 -17 4 -29 7 -27 9 5 46 -91 54
-140 3 -21 10 -46 15 -55 18 -37 60 -337 60 -435 0 -314 -89 -673 -229 -926
-5 -8 -18 -35 -30 -60 -23 -48 -42 -82 -52 -90 -3 -3 -15 -21 -26 -40 -12 -19
-30 -44 -41 -55 -10 -12 -21 -26 -23 -32 -16 -45 -332 -363 -360 -363 -5 0 -9
-4 -9 -9 0 -17 -227 -159 -340 -213 -163 -77 -188 -88 -210 -88 -11 0 -20 -4
-20 -9 0 -5 -21 -12 -46 -16 -26 -4 -54 -10 -63 -15 -38 -18 -163 -44 -296
-61 -113 -14 -581 -7 -685 10 -171 29 -380 72 -460 95 -30 9 -71 19 -90 23
-19 3 -39 9 -45 13 -5 4 -39 18 -75 30 -36 13 -83 29 -104 37 -62 22 -323 151
-331 163 -3 5 -13 10 -22 10 -9 0 -26 11 -39 25 -13 14 -29 25 -37 25 -8 0
-20 7 -27 15 -7 8 -16 15 -21 15 -4 0 -38 21 -74 47 -37 27 -74 53 -82 58 -21
14 -70 55 -105 87 -16 16 -31 28 -34 28 -7 0 -214 210 -265 271 -26 30 -68 83
-95 119 -27 36 -51 67 -54 70 -17 16 -40 72 -40 98 0 29 24 88 44 107 6 6 25
19 41 30 28 19 50 20 337 23 l306 4 31 27 c17 15 31 33 31 39 0 5 6 12 12 14
8 3 13 26 13 65 0 51 -5 66 -29 98 -51 67 -32 65 -682 65 -578 0 -587 0 -621
21 -92 57 -84 206 14 253 30 14 112 16 698 16 755 0 704 -6 748 85 42 84 14
176 -64 216 -35 17 -61 19 -304 19 -226 0 -271 2 -298 16 -42 23 -52 33 -66
77 -12 35 -11 43 11 85 18 36 30 48 51 50 15 2 27 6 27 10 0 4 39 8 88 8 205
3 188 0 202 37 13 34 19 50 44 107 8 19 17 45 21 58 3 12 11 22 16 22 5 0 9 7
9 15 0 16 48 108 84 160 12 17 26 38 31 47 23 39 91 134 110 153 11 11 32 36
46 55 41 54 251 260 264 260 3 0 19 12 36 28 60 53 201 141 331 205 160 79
202 97 220 97 8 0 18 3 22 7 4 5 29 13 54 20 26 6 74 19 107 28 65 18 135 31
230 44 86 11 388 12 470 1z m-2752 -1347 c46 -24 66 -53 73 -107 9 -63 -23
-126 -77 -149 -53 -23 -217 -24 -265 -1 -103 49 -111 203 -13 256 48 25 233
26 282 1z m-253 -1153 c0 -5 8 -10 18 -10 11 0 34 -17 53 -37 30 -34 34 -44
34 -95 0 -48 -4 -60 -27 -82 -16 -14 -28 -30 -28 -36 0 -5 -9 -10 -19 -10 -11
0 -23 -4 -26 -10 -9 -15 -327 -13 -357 3 -122 64 -129 201 -13 263 36 19 57
22 203 23 104 1 162 -2 162 -9z"/>
<path d="M3661 3785 c-61 -33 -99 -85 -140 -188 -14 -34 -15 -221 -1 -245 5
-9 18 -37 29 -62 24 -56 63 -97 116 -121 51 -24 86 -24 138 0 68 31 99 73 147
197 12 33 9 185 -5 239 -10 35 -63 127 -81 138 -7 4 -19 13 -26 20 -38 36
-130 48 -177 22z"/>
<path d="M4582 3785 c-41 -22 -86 -69 -103 -105 -9 -19 -23 -48 -30 -64 -22
-47 -19 -239 6 -301 24 -63 85 -129 138 -150 42 -17 137 -13 137 6 0 5 5 9 10
9 21 0 79 63 100 108 26 55 51 200 39 224 -5 9 -9 33 -9 54 0 72 -81 196 -136
210 -13 3 -24 10 -24 15 0 14 -102 9 -128 -6z"/>
</g>
</svg>
